<?xml version="1.0" encoding="UTF-8" standalone="no"?>
<!-- Generator: Adobe Illustrator 26.0.3, SVG Export Plug-In . SVG Version: 6.00 Build 0)  -->

<svg
   version="1.1"
   id="Layer_1"
   x="0px"
   y="0px"
   viewBox="0 0 127.1 48.82"
   xml:space="preserve"
   sodipodi:docname="act_logo_colour.svg"
   width="127.1"
   height="48.82"
   inkscape:version="1.1.2 (b8e25be833, 2022-02-05)"
   xmlns:inkscape="http://www.inkscape.org/namespaces/inkscape"
   xmlns:sodipodi="http://sodipodi.sourceforge.net/DTD/sodipodi-0.dtd"
   xmlns="http://www.w3.org/2000/svg"
   xmlns:svg="http://www.w3.org/2000/svg"><defs
   id="defs19" /><sodipodi:namedview
   id="namedview17"
   pagecolor="#505050"
   bordercolor="#eeeeee"
   borderopacity="1"
   inkscape:pageshadow="0"
   inkscape:pageopacity="0"
   inkscape:pagecheckerboard="0"
   showgrid="false"
   fit-margin-top="0"
   fit-margin-left="0"
   fit-margin-right="0"
   fit-margin-bottom="0"
   inkscape:zoom="8.6969697"
   inkscape:cx="63.585366"
   inkscape:cy="24.376307"
   inkscape:window-width="1920"
   inkscape:window-height="1017"
   inkscape:window-x="-8"
   inkscape:window-y="-8"
   inkscape:window-maximized="1"
   inkscape:current-layer="Layer_1" />
<style
   type="text/css"
   id="style2">
	.st0{fill:#FFDF00;}
	.st1{fill:#00AEEF;}
	.st2{fill:#EC008C;}
</style>
<g
   id="g14"
   transform="translate(-2.45,-2.59)">
	<polygon
   class="st0"
   points="99.95,51.41 114,2.59 16.5,2.59 2.45,51.41 "
   id="polygon4" />
	<path
   class="st1"
   d="m 36.75,29.88 c 0,-3.83 -2.17,-7 -6.39,-7 -3.95,0 -6.39,2.95 -6.39,7 0,4.05 2.44,7.06 6.39,7.06 4.22,0 6.39,-3.17 6.39,-7.06 m -21.45,0 c 0,-8 4.95,-14.12 12.73,-14.12 3.89,0 6.95,1.83 8.39,4.56 v -3.83 h 8.45 V 43.28 H 36.42 V 39.5 C 34.97,42.17 31.64,44 27.92,44 19.91,44 15.3,37.94 15.3,29.88"
   id="path6" />
	<path
   class="st1"
   d="m 47.59,29.88 c 0,-8.45 5.5,-14.17 14.34,-14.17 8,0 13.23,4.28 13.89,10.95 h -8.5 c -0.61,-2.5 -2.22,-3.78 -5.33,-3.78 -3.67,0 -5.89,2.56 -5.89,7 0,4.44 2.22,7 5.89,7 3.11,0 4.72,-1.22 5.33,-3.56 h 8.5 C 75.15,39.82 69.93,44.1 61.93,44.1 53.09,44.11 47.59,38.33 47.59,29.88"
   id="path8" />
	<path
   class="st1"
   d="m 96.77,36.5 v 6.78 c -1.22,0.22 -3.22,0.45 -5.67,0.45 -4,0 -9.5,-0.89 -9.5,-9.84 V 23.22 H 77.38 V 16.5 H 81.6 V 8.54 h 8.5 v 7.95 h 6.06 v 6.72 H 90.1 v 8.89 c 0,3.95 1.61,4.56 3.72,4.56 1.06,0 2.18,-0.05 2.95,-0.16"
   id="path10" />
	<polygon
   class="st2"
   points="115.5,51.41 129.55,2.59 121.78,2.59 107.73,51.41 "
   id="polygon12" />
</g>
</svg>
