<?xml version="1.0" encoding="UTF-8" standalone="no"?>
<!-- Created with Inkscape (http://www.inkscape.org/) -->

<svg
   width="2917.1208"
   height="893.96655"
   viewBox="0 0 771.82154 236.52866"
   version="1.1"
   id="svg5"
   inkscape:version="1.1.1 (3bf5ae0d25, 2021-09-20)"
   sodipodi:docname="greenlogo.svg"
   xmlns:inkscape="http://www.inkscape.org/namespaces/inkscape"
   xmlns:sodipodi="http://sodipodi.sourceforge.net/DTD/sodipodi-0.dtd"
   xmlns="http://www.w3.org/2000/svg"
   xmlns:svg="http://www.w3.org/2000/svg">
  <sodipodi:namedview
     id="namedview7"
     pagecolor="#ffffff"
     bordercolor="#666666"
     borderopacity="1.0"
     inkscape:pageshadow="2"
     inkscape:pageopacity="0.0"
     inkscape:pagecheckerboard="false"
     inkscape:document-units="px"
     showgrid="false"
     showborder="false"
     units="px"
     inkscape:zoom="0.27968811"
     inkscape:cx="1199.5505"
     inkscape:cy="484.46821"
     inkscape:window-width="1920"
     inkscape:window-height="1057"
     inkscape:window-x="-8"
     inkscape:window-y="-8"
     inkscape:window-maximized="1"
     inkscape:current-layer="layer1"
     inkscape:snap-bbox="true"
     inkscape:bbox-nodes="true"
     inkscape:bbox-paths="true"
     inkscape:snap-bbox-edge-midpoints="true"
     inkscape:snap-bbox-midpoints="true"
     inkscape:object-paths="true"
     inkscape:snap-intersection-paths="true"
     inkscape:snap-smooth-nodes="true"
     inkscape:snap-midpoints="true"
     inkscape:snap-object-midpoints="true"
     inkscape:snap-center="true"
     inkscape:snap-text-baseline="true"
     inkscape:snap-global="false"
     fit-margin-top="0"
     fit-margin-left="0"
     fit-margin-right="0"
     fit-margin-bottom="0" />
  <defs
     id="defs2" />
  <g
     inkscape:label="Layer 1"
     inkscape:groupmode="layer"
     id="layer1"
     transform="translate(223.36355,195.18932)">
    <path
       id="path1568"
       style="fill:#00b138;fill-opacity:1;stroke:none;stroke-width:0.264583;stroke-linecap:round;stroke-linejoin:round;stop-color:#000000"
       d="m -8.7715692,-195.18845 c -0.1979004,-0.0411 -1.8428838,1.3836 -3.8261238,3.32383 -5.25775,5.14371 -11.410997,8.92936 -17.788577,10.94403 -4.608452,1.45581 -7.353758,1.7808 -19.785357,2.34353 -40.444501,1.83075 -48.446446,2.50637 -67.279093,5.67975 -22.05438,3.71626 -38.11086,9.18739 -52.95284,18.04438 -35.80227,21.36511 -54.46974,56.083308 -52.86446,98.318545 1.14355,30.086904 11.09085,54.3242244 29.39974,71.635936 15.39474,14.556266 36.66163,23.450443 61.3668,25.664583 18.44012,1.65264 36.505865,-0.212302 61.275325,-6.325712 18.876838,-4.65905 32.471995,-9.881973 36.283574,-13.939199 l 1.387512,-1.476912 -1.70739,-3.449402 c -2.401626,-4.852803 -3.023836,-13.84735 -2.783808,-40.222868 0.18669,-20.513846 0.263384,-21.675932 1.494999,-22.575883 0.95442,-0.697407 3.480191,-0.94878 9.532233,-0.94878 h 8.233606 v -5.351611 -5.351094 h -42.141613 -42.142128 v 5.308203 5.308203 l 11.765689,0.210323 11.765171,0.210323 1.590085,1.850016 c 3.39494,3.950507 4.285213,13.153829 4.300514,44.4551672 l 0.01085,22.2244838 -1.839163,0.944644 c -3.510161,1.802289 -13.238938,4.528463 -19.563146,5.481836 -24.89298,3.752612 -48.05752,-3.371236 -64.24724,-19.7579662 -5.84447,-5.915607 -12.85957,-16.0440395 -16.36024,-23.6207798 -8.61104,-18.637483 -12.43328,-42.155369 -8.46977,-52.114132 2.76473,-6.946682 9.58813,-13.176709 17.55552,-16.028479 4.05922,-1.45295 5.2192,-1.535246 21.3496,-1.514636 10.67709,0.01365 22.43716,0.480796 31.43942,1.248503 17.152433,1.462739 26.252038,1.154569 35.502229,-1.201477 14.365679,-3.658973 24.336652,-9.330748 34.774102,-19.780705 12.663879,-12.67906 17.71632,-23.27635 26.470737,-55.52167 2.709415,-9.97966 8.2733961,-32.83653 8.2733961,-33.98708 0,-0.0161 -0.00696,-0.0252 -0.020153,-0.0279 z m -12.8627818,22.93141 -1.550292,4.52841 c -3.897283,11.38479 -8.94134,18.46087 -15.418181,21.62969 -3.117035,1.52502 -4.719725,1.83901 -10.169403,1.99057 -3.558048,0.099 -7.22186,0.0476 -8.141623,-0.11368 -0.919763,-0.16126 -5.966103,-0.93676 -11.214304,-1.72341 -5.248209,-0.78666 -9.462301,-1.50662 -9.364802,-1.59991 0.09753,-0.0933 4.676843,-1.128 10.176123,-2.2996 22.318636,-4.75489 32.010924,-8.89424 40.514839,-17.30282 z m -74.553587,32.51068 c 6.793433,-0.0555 12.436877,0.74159 25.895577,3.43442 13.222809,2.64563 24.833178,2.92804 30.937644,0.75189 2.115458,-0.75413 3.846277,-1.26096 3.846277,-1.12603 0,0.13493 -0.905835,2.2426 -2.012796,4.68395 -2.762568,6.09271 -5.981417,9.80628 -10.354924,11.94604 -3.098559,1.51599 -4.706006,1.82238 -10.528038,2.00608 -11.879209,0.37483 -17.710131,-0.59996 -43.327072,-7.24245 -6.43835,-1.66947 -14.67953,-3.40406 -18.31361,-3.85506 l -6.60735,-0.82011 3.93154,-2.23707 c 2.16247,-1.23037 6.64122,-3.34954 9.95237,-4.70927 5.43884,-2.23349 6.74958,-2.49998 13.572297,-2.75953 1.043546,-0.0397 2.037596,-0.0649 3.008085,-0.0729 z m -35.952322,20.43958 c 1.67946,0.0144 3.41967,0.12198 5.22293,0.32246 3.36696,0.37432 12.44329,2.29768 20.16931,4.27416 18.653543,4.77197 27.49301,6.31208 39.060151,6.80527 8.524269,0.36344 9.482527,0.51937 8.361246,1.36167 -2.802188,2.10501 -9.172855,4.91194 -15.738572,6.933945 -6.70601,2.065208 -7.415067,2.14502 -21.649325,2.435511 -8.09392,0.165169 -14.8668,0.156348 -15.05076,-0.01964 -0.41651,-0.398481 -18.00097,-1.625555 -36.08514,-2.518193 -7.52196,-0.371283 -13.81946,-0.818703 -13.99501,-0.994253 -0.17555,-0.17555 1.10195,-2.3994 2.8391,-4.94182 6.34527,-9.2866 15.10979,-13.76022 26.86607,-13.65911 z m 176.233163,12.83177 -1.839681,0.38034 c -2.813944,0.58229 -26.332684,2.90659 -41.30548931,4.08193 -7.35810739,0.57759 -13.76831569,1.18442 -14.24512369,1.34823 -0.622679,0.21393 -0.811427,1.572231 -0.669211,4.821931 l 0.197921,4.524271 8.5860391,0.334863 8.5865572,0.334347 1.9151282,2.146122 c 1.0533962,1.180491 2.3986252,3.739254 2.9894821,5.685958 1.6539342,5.449245 2.4255784,30.161238 2.2014154,70.496472 -0.160623,28.901784 -0.368131,35.723422 -1.1151791,36.623088 -0.755314,0.909634 -2.2676353,1.105873 -8.52919291,1.105873 H -6.7448213 v 5.021916 5.022432 L 31.88538,35.280165 70.515062,35.107567 V 30.425164 25.742761 L 60.381831,25.408415 C 48.952012,25.031172 48.30415,24.770301 46.459684,19.807723 44.552276,14.675786 44.104068,5.1184722 44.098588,-30.551475 l -0.0057,-35.558036 3.500562,-3.147611 c 4.712456,-4.236906 8.360037,-6.681749 13.737662,-9.208224 3.930528,-1.846612 5.350355,-2.144097 11.191048,-2.344043 5.944809,-0.203512 7.023983,-0.05653 9.699148,1.320333 1.980602,1.019379 3.746974,2.680578 5.164545,4.856551 1.184934,1.818884 2.636383,3.57697 3.225642,3.906739 1.595056,0.892635 4.275005,-0.02266 5.017264,-1.713591 0.358921,-0.817637 1.701128,-7.178385 2.982249,-14.134538 2.567682,-13.941935 2.625982,-13.40164 -1.751315,-16.164905 -3.907356,-2.46661 -9.634619,-3.8543 -14.017749,-3.39617 -9.486841,0.99157 -16.353999,5.32235 -29.216821,18.424711 l -9.532235,9.709484 v -14.236857 z m 393.324317,0.0806 -1.50482,0.34055 c -3.3455,0.75653 -49.25058,5.01951 -54.18275,5.03173 l -1.83915,0.005 v 5.01675 5.017265 h 8.31009 c 7.91411,10e-7 8.40576,0.08048 10.32081,1.691887 2.37077,1.994879 3.8549,6.056412 4.75835,13.024011 0.85344,6.582444 0.88918,98.988473 0.0388,100.33806 -0.48215,0.765175 -2.50423,1.082844 -8.51834,1.337902 l -7.88633,0.334346 -0.20309,3.938778 c -0.11184,2.166223 -0.046,4.348247 0.14623,4.849318 0.28903,0.753078 6.55796,0.911056 36.15748,0.911056 h 35.80816 v -5.016749 -5.016749 h -6.65748 c -3.66175,0 -7.42029,-0.347575 -8.35194,-0.772046 -2.28571,-1.041453 -4.15232,-5.208492 -5.04775,-11.268562 -0.43608,-2.951162 -0.90559,-21.4237061 -1.14051,-44.862895 l -0.39944,-39.845628 5.5273,-4.165121 c 9.86677,-7.43483 17.11381,-10.26368 26.43817,-10.3203 12.58462,-0.07643 19.11663,4.716486 22.15526,16.256889 1.0064,3.822173 1.17488,9.542581 1.41438,48.031177 0.24355,39.148964 0.16098,43.861262 -0.79428,45.319196 -1.00517,1.534078 -1.42888,1.62729 -7.40574,1.62729 h -6.33915 v 5.016749 5.016749 h 35.11828 35.11825 v -5.016749 -5.016749 h -7.54372 c -8.53625,0 -9.98328,-0.566182 -11.65045,-4.55631 -2.04822,-4.902015 -2.33889,-10.208643 -2.8448,-51.96737 -0.57494,-47.463028 -0.51366,-46.798215 -5.17901,-56.497843 -4.27749,-8.893308 -12.00335,-14.960952 -22.28236,-17.500742 -5.75151,-1.42111 -17.40485,-1.12824 -23.47452,0.59015 -9.42737,2.66897 -18.15364,7.280319 -30.83224,16.292542 -3.56372,2.533182 -6.64911,4.605404 -6.85641,4.605404 -0.2073,0 -0.37724,-5.122916 -0.37724,-11.384319 z M 317.47,-105.68642 c -38.82514,0.0755 -63.67045,23.010713 -67.94674,62.723816 -2.88406,26.783674 3.51374,49.5656268 18.22111,64.881827 8.61779,8.974534 20.07783,14.606013 34.27336,16.842382 6.18643,0.974622 21.73904,0.284089 29.20442,-1.296561 14.57925,-3.086838 29.02394,-10.059273 39.80944,-19.216396 l 3.51711,-2.985866 -1.15859,-1.96112 c -0.63717,-1.078654 -1.76842,-2.725058 -2.51354,-3.6586931 l -1.35443,-1.6975693 -3.67937,2.7600384 C 353.84508,19.706113 341.27957,23.3237 326.85808,21.929557 316.40365,20.918928 308.50166,17.061002 301.62653,9.6104145 293.7669,1.0929215 289.12217,-11.816684 287.84908,-28.681305 l -0.46095,-6.102987 42.73951,-0.172599 42.739,-0.172082 -0.0522,-11.371399 c -0.0599,-13.080796 -0.80118,-16.887462 -5.00538,-25.705407 -5.04333,-10.577928 -12.6814,-19.561236 -21.46277,-25.241871 -9.01567,-5.83222 -17.52785,-8.26084 -28.87628,-8.23877 z m -142.60317,0.002 c -42.95935,-0.0493 -68.58276,27.937827 -68.56067,74.885873 0.0179,38.063828 19.41049,64.014719 51.81027,69.332199 6.73359,1.105122 21.4121,0.735446 28.94242,-0.729155 13.05863,-2.539809 26.89408,-8.713057 37.59667,-16.775202 3.70405,-2.790243 6.73499,-5.403181 6.73499,-5.806879 0,-0.759675 -3.95073,-7.2062792 -4.41627,-7.2062792 -0.14457,0 -2.14476,1.3874326 -4.4452,3.0830152 -6.91757,5.098706 -15.31016,8.898527 -22.9123,10.373526 -5.22893,1.014545 -17.50476,0.779037 -22.07462,-0.42323 -12.39224,-3.260222 -21.21649,-10.753775 -26.82162,-22.7774205 -3.62275,-7.7711828 -5.47137,-15.7700955 -6.59804,-28.5512265 l -0.39791,-4.515488 h 43.08522 43.08574 l 0.47284,-5.048271 c 0.61348,-6.546762 -0.15183,-16.740071 -1.72237,-22.936584 -2.53394,-9.997545 -9.18259,-20.845017 -17.53123,-28.602388 -10.63771,-9.88432 -21.79294,-14.2859 -36.24792,-14.30249 z m -3.42925,10.853606 c 3.14745,-0.05628 6.277,0.694796 9.17619,2.272729 11.19423,6.092666 20.30648,24.418157 20.73982,41.709598 l 0.14211,5.685958 -30.63844,0.173632 -30.63896,0.17415 0.39274,-5.859591 c 1.00211,-14.947048 9.60233,-32.996042 19.04845,-39.97637 3.65481,-2.70077 7.73138,-4.107753 11.77809,-4.180106 z m 143.01504,0.08475 c 2.97,0.03902 5.97426,0.678256 8.32818,1.90841 11.58092,6.052188 20.23295,22.795195 21.43847,41.48739 l 0.42013,6.522082 h -30.87097 -30.8715 v -2.587956 c 0,-7.336319 3.25238,-19.377825 7.52202,-27.848429 4.42066,-8.770141 9.42639,-14.36623 15.91117,-17.789094 2.21681,-1.1701 5.15252,-1.731427 8.1225,-1.692403 z" />
  </g>
</svg>
