<svg xmlns="http://www.w3.org/2000/svg" xmlns:xlink="http://www.w3.org/1999/xlink" version="1.1" id="LabourLogo" x="0" y="0" width="415.897" height="111.3" viewBox="0 0 415.897 111.3" xml:space="preserve">
    <defs id="defs39">
        <defs id="defs29">
            <rect id="SVGID_3_" x="34.719" y="-19.228" width="239.159" height="106.534"/>
        </defs>
        <clipPath id="SVGID_4_">
            <use xlink:href="#SVGID_3_" overflow="visible" id="use31" style="overflow:visible" x="0" y="0" width="100%" height="100%"/>
        </clipPath>
    </defs>
    <g id="wordmark_background" transform="translate(113.3)">
        <rect x="0" y="0" width="302.597" height="111.3" id="rectangle" style="fill:#d82c20"/>
    </g>
    <g id="remainder" transform="translate(113.3)">
        <polygon style="fill:#fff" id="L" points="28.719,28.877 28.719,86.351 63.104,86.351 63.104,77.155 38.818,77.155 38.818,28.877"/>
        <g id="our">
            <defs id="defs11">
                <rect id="SVGID_1_" x="34.719" y="-19.228" width="239.159" height="106.534"/>
            </defs>
            <clipPath id="SVGID_2_">
                <use xlink:href="#SVGID_1_" overflow="visible" id="use13" style="overflow:visible" x="0" y="0" width="100%" height="100%"/>
            </clipPath>
            <path clip-path="url(#SVGID_2_)" d="M202.319 64.924v-.16c0-3.097-.571-5.982-1.707-8.668-1.139-2.687-2.724-5.05-4.762-7.082-2.033-2.035-4.449-3.634-7.246-4.804-2.793-1.166-5.845-1.75-9.156-1.75-3.309 0-6.36.6-9.155 1.794-2.796 1.193-5.207 2.805-7.243 4.841-2.034 2.035-3.634 4.41-4.801 7.118-1.167 2.717-1.751 5.618-1.751 8.71v.163c0 3.041.571 5.915 1.711 8.628 1.141 2.713 2.726 5.07 4.759 7.082 2.04 2.006 4.452 3.595 7.244 4.759 2.794 1.169 5.819 1.75 9.077 1.75 3.308 0 6.371-.6 9.193-1.791 2.821-1.195 5.254-2.809 7.287-4.841 2.032-2.036 3.632-4.409 4.798-7.123 1.169-2.71 1.752-5.587 1.752-8.626m-9.849.163c0 1.846-.3 3.596-.894 5.249-.599 1.657-1.465 3.109-2.605 4.357-1.139 1.245-2.506 2.235-4.11 2.971-1.6.73-3.402 1.093-5.413 1.093-1.895 0-3.648-.363-5.248-1.093-1.6-.737-2.98-1.739-4.149-3.016-1.167-1.273-2.076-2.753-2.727-4.437-.65-1.679-.976-3.442-.976-5.288v-.16c0-1.903.298-3.678.894-5.333.6-1.655 1.465-3.093 2.604-4.315 1.141-1.221 2.508-2.193 4.115-2.93 1.597-.732 3.371-1.095 5.33-1.095 1.949 0 3.724.363 5.328 1.095 1.6.738 2.987 1.727 4.152 2.972 1.169 1.25 2.072 2.714 2.729 4.393.645 1.683.972 3.477.972 5.373v.164z" id="o" style="fill:#fff"/>
            <path clip-path="url(#SVGID_2_)" d="M225.559 86.613c1.325-.405 2.55-.958 3.659-1.665 1.112-.704 2.092-1.506 2.931-2.399.842-.902 1.616-1.86 2.321-2.893v6.673h9.848V43.356h-9.848v24.255c0 3.362-.891 5.982-2.685 7.853-1.793 1.87-4.127 2.808-7 2.808-2.932 0-5.2-.91-6.799-2.723-1.599-1.819-2.399-4.413-2.399-7.776V43.356h-9.845v27.347c0 5.046 1.327 9.061 3.987 12.044 2.657 2.987 6.429 4.481 11.31 4.481 1.683 0 3.187-.209 4.52-.615" id="u" style="fill:#fff"/>
            <path clip-path="url(#SVGID_2_)" d="M248.808 86.331h9.847V69.974c0-2.882.353-5.373 1.059-7.49.707-2.117 1.71-3.881 3.012-5.289 1.301-1.41 2.846-2.47 4.639-3.176 1.786-.708 3.773-1.06 5.94-1.06h.573V42.545c-3.8-.165-6.946.734-9.445 2.686-2.493 1.949-4.424 4.554-5.779 7.812v-9.688h-9.847v42.976z" id="r" style="fill:#fff"/>
        </g>
        <g id="ab">
            <path style="fill:#fff" id="path22" d="M103.816 64.718v-3.863c0-5.75-1.546-10.217-4.638-13.389-3.094-3.172-7.843-4.759-14.241-4.759-3.53 0-6.539.322-9.037.977-2.497.651-4.94 1.517-7.324 2.602l2.685 7.892c1.953-.81 3.878-1.463 5.779-1.949 1.896-.49 4.071-.737 6.511-.737 3.419 0 6.034.79 7.853 2.362 1.818 1.573 2.729 3.854 2.729 6.837l-.084 25.637h9.767V70.525z" clip-path="url(#SVGID_2_)"/>
            <path style="fill:#fff" id="path24" d="M109.432 26.916v59.412h9.846V72.502c-4.922-7.211-5.55-13.302 0-21.009V26.916z" clip-path="url(#SVGID_2_)"/>
            <path clip-path="url(#SVGID_4_)" d="M79.49 87.225c-8.512 0-14.658-5.77-14.658-13.429 0-5.852 3.232-14.081 17.415-14.081 22.134 0 38.092 18.95 48.798 18.95 9.151 0 12.815-7.401 12.815-13.903 0-5.514-3.362-13.751-12.288-13.751-11.593 0-18.807 17.206-5.627 26.533-20.579-5.364-13.481-34.187 7.904-35.083 12.915-.54 20.023 10.806 20.023 22.301 0 12.981-8.086 22.464-20.023 22.464-17.97 0-25.603-20.595-49.405-20.595-8.771 0-9.845 4.831-9.845 6.677 0 2.383 1.374 6.511 8.304 6.511 5.435 0 10.295-5.5 10.295-5.818-.001 2.639-4.55 13.224-13.708 13.224" id="path34" style="fill:#fff"/>
        </g>
        <g id="fern" transform="translate(-113.3)">
            <rect x="0" y="0" width="111.3" height="111.3" id="background" style="fill:#d82c20"/>
            <g id="shape">
                <path d="M67.685 43.235c13.598-10.071 18.828-18.49 20.82-23.809l.092-.313s.753-2.744-.048-3.004c-.293-.095-.742 1.971-2.943 5.619-.343-.875-.91-1.964-1.562-1.802-.173.044-.221.233-.181.547.045.357.488 1.756.807 2.733-.57.864-1.229 1.794-1.994 2.788-.465-1.249-1.384-3.237-2.442-2.973-.255.065-.317.333-.265.781.074.565.777 2.813 1.184 4.082-.723.861-1.52 1.76-2.399 2.696-.401-1.293-1.701-5.019-3.281-4.623-.32.082-.401.414-.326.975.106.845 1.164 4.475 1.493 5.594-.828.703-1.86 1.549-3.045 2.505-.394-1.501-2.017-7.077-4.261-6.601-.431.094-.551.541-.482 1.297.107 1.225 1.497 6.629 1.769 7.677-.995.788-2.051 1.619-3.147 2.479-.186-.747-2.392-9.323-5.479-8.662-.531.11-.686.672-.598 1.616.134 1.481 1.952 8.299 2.391 9.929-1.129.881-2.277 1.776-3.43 2.674-.628-2.394-3.25-11.424-6.872-10.652-.684.144-.887.866-.777 2.092.181 1.95 2.365 10.505 2.832 12.318-1.197.935-2.372 1.855-3.508 2.747-.373-1.515-3.601-14.044-8.224-13.052-.808.167-1.038 1.016-.907 2.451.211 2.356 3.295 13.021 3.817 14.816-1.106.889-2.112 1.707-2.988 2.433-1.158-2.523-6.607-13.75-11.08-12.024-.837.323-.944 1.258-.555 2.764.583 2.308 4.865 11.972 6.055 14.636-.922 1.066-1.828 2.194-2.698 3.334h-.094l.024-.036s-5.675-14.105-10.709-12.162c-.836.323-.943 1.26-.553 2.762.639 2.539 6.008 14.81 6.605 16.171-1.706 2.618-2.789 4.482-2.789 4.482l-6.23 11.935-.001.004c-.279.507-.372 1.464-.191 2.52.257 1.5.956 2.631 1.568 2.526.169-.028.316-.158.434-.356l.005.017s.015-.033.03-.083c.049-.094.093-.208.126-.331.44-1.108 1.846-4.484 4.957-10.334l.875-1.391c1.522-2.984 3.128-5.942 4.612-8.314 4.933-7.879 8.922-13.227 33.563-31.478z" id="path4" style="fill:#fff"/>
                <path d="M39.15 70.983c-1.187 1.602-2.198 3.165-3.247 4.843-.412.657-.831 1.363-1.258 2.099 2.835.196 15.053 1.014 17.493.771 1.54-.148 2.383-.561 2.405-1.459.107-5.06-13.653-6.141-15.393-6.254z" id="path6" style="fill:#fff"/>
                <path d="M47.524 61.97c-2.547 2.318-4.473 4.288-6.041 6.106 1.826.284 15.113 2.359 17.695 2.329 1.554-.017 2.429-.355 2.528-1.247.53-4.903-12.02-6.886-14.182-7.188z" id="path8" style="fill:#fff"/>
                <path d="M56.105 54.728c-2.026 1.617-3.823 3.098-5.417 4.459 1.629.555 11.991 4.071 14.143 4.427 1.31.214 2.104.059 2.32-.677 1.225-4.209-9.917-7.853-11.046-8.209z" id="path10" style="fill:#fff"/>
                <path d="M63.875 48.707a389.6206 389.6206 0 0 0-5.102 3.92c1.392.585 10.536 4.427 12.461 4.881 1.155.283 1.877.189 2.12-.459 1.324-3.593-7.969-7.699-9.479-8.342z" id="path12" style="fill:#fff"/>
                <path d="M70.799 43.507c-.605.468-1.224.938-1.865 1.413-.855.634-1.679 1.251-2.482 1.85 1.161.488 9.017 3.79 10.665 4.177 1 .237 1.612.162 1.815-.391 1.135-3.092-6.922-6.547-8.133-7.049z" id="path14" style="fill:#fff"/>
                <path d="M76.805 38.491c-1.132 1.031-2.352 2.082-3.66 3.157 1.452.482 8.275 2.721 9.725 2.949.913.14 1.458.028 1.602-.482.81-2.878-6.65-5.309-7.667-5.624z" id="path16-7" style="fill:#fff"/>
                <path d="M82.135 33.156a69.157 69.157 0 0 1-2.821 2.957c1.258.297 7.217 1.694 8.464 1.777.783.055 1.239-.082 1.318-.523.489-2.568-6.383-4.089-6.961-4.211z" id="path18-3" style="fill:#fff"/>
                <path d="M85.929 28.547l-.569.68c-.371.497-.764 1-1.178 1.513.653.086 5.046.645 5.933.611.532-.021.828-.144.854-.45.154-1.848-5.04-2.354-5.04-2.354z" id="path20-4" style="fill:#fff"/>
                <path d="M88.382 24.619c-.334.595-.701 1.209-1.109 1.841.848-.024 3.709-.121 4.308-.237.396-.08.602-.205.586-.44-.09-1.183-2.937-1.186-3.785-1.164z" id="path22-4" style="fill:#fff"/>
            </g>
        </g>
    </g>
</svg>

