<?xml version="1.0" encoding="UTF-8" standalone="no"?>
<!-- Created with Inkscape (http://www.inkscape.org/) -->

<svg
   width="38.075451mm"
   height="11.194614mm"
   viewBox="-1.5 -0.5 41.076647 12.077"
   version="1.1"
   id="svg1222"
   inkscape:version="1.2 (dc2aeda, 2022-05-15)"
   sodipodi:docname="tpm.svg"
   xmlns:inkscape="http://www.inkscape.org/namespaces/inkscape"
   xmlns:sodipodi="http://sodipodi.sourceforge.net/DTD/sodipodi-0.dtd"
   xmlns="http://www.w3.org/2000/svg"
   xmlns:svg="http://www.w3.org/2000/svg">
  <sodipodi:namedview
     id="namedview1224"
     pagecolor="#ffffff"
     bordercolor="#666666"
     borderopacity="1.0"
     inkscape:showpageshadow="2"
     inkscape:pageopacity="0.0"
     inkscape:pagecheckerboard="0"
     inkscape:deskcolor="#d1d1d1"
     inkscape:document-units="mm"
     showgrid="false"
     inkscape:zoom="6.0177663"
     inkscape:cx="71.28891"
     inkscape:cy="32.154788"
     inkscape:window-width="966"
     inkscape:window-height="779"
     inkscape:window-x="0"
     inkscape:window-y="37"
     inkscape:window-maximized="0"
     inkscape:current-layer="layer1" />
  <defs
     id="defs1219">
    <clipPath
       clipPathUnits="userSpaceOnUse"
       id="clipPath370">
      <path
         d="M 0,0 H 800.78 V 241.88 H 0 Z"
         id="path368" />
    </clipPath>
    <clipPath
       clipPathUnits="userSpaceOnUse"
       id="clipPath384">
      <path
         d="M -156.99,612.46 V -468.14 H 923.61 V 612.46"
         clip-rule="evenodd"
         id="path382" />
    </clipPath>
    <clipPath
       clipPathUnits="userSpaceOnUse"
       id="clipPath394">
      <path
         d="M -156.99,612.46 V -468.14 H 923.61 V 612.46"
         clip-rule="evenodd"
         id="path392" />
    </clipPath>
    <clipPath
       clipPathUnits="userSpaceOnUse"
       id="clipPath404">
      <path
         d="M -156.99,612.46 V -468.14 H 923.61 V 612.46"
         clip-rule="evenodd"
         id="path402" />
    </clipPath>
    <clipPath
       clipPathUnits="userSpaceOnUse"
       id="clipPath414">
      <path
         d="M -156.99,612.46 V -468.14 H 923.61 V 612.46"
         clip-rule="evenodd"
         id="path412" />
    </clipPath>
    <clipPath
       clipPathUnits="userSpaceOnUse"
       id="clipPath424">
      <path
         d="M -156.99,612.46 V -468.14 H 923.61 V 612.46"
         clip-rule="evenodd"
         id="path422" />
    </clipPath>
    <clipPath
       clipPathUnits="userSpaceOnUse"
       id="clipPath434">
      <path
         d="M -156.99,612.46 V -468.14 H 923.61 V 612.46"
         clip-rule="evenodd"
         id="path432" />
    </clipPath>
    <clipPath
       clipPathUnits="userSpaceOnUse"
       id="clipPath444">
      <path
         d="M -156.99,612.46 V -468.14 H 923.61 V 612.46"
         clip-rule="evenodd"
         id="path442" />
    </clipPath>
    <clipPath
       clipPathUnits="userSpaceOnUse"
       id="clipPath454">
      <path
         d="M -156.99,612.46 V -468.14 H 923.61 V 612.46"
         clip-rule="evenodd"
         id="path452" />
    </clipPath>
    <clipPath
       clipPathUnits="userSpaceOnUse"
       id="clipPath464">
      <path
         d="M -156.99,612.46 V -468.14 H 923.61 V 612.46"
         clip-rule="evenodd"
         id="path462" />
    </clipPath>
  </defs>
  <g
     inkscape:label="Layer 1"
     inkscape:groupmode="layer"
     id="layer1"
     transform="translate(-61.504647,-20.830662)">
    <g
       id="g362"
       transform="matrix(0.54602943,0,0,-0.17384889,60.809112,32.622964)">
      <g
         id="g364"
         transform="scale(0.089912,0.29766)">
        <g
           id="g366"
           clip-path="url(#clipPath370)">
          <g
             id="g372">
            <g
               id="g374">
              <g
                 id="g376" />
            </g>
            <g
               id="g378">
              <g
                 id="g380"
                 clip-path="url(#clipPath384)">
                <path
                   d="m 76.895,73.734 v 0 c -0.075,0.15 -0.075,0.225 -0.075,0.3 h 0.675 c 0,-0.075 0,-0.15 0,-0.225 -0.225,-0.075 -0.375,-0.075 -0.6,-0.075 z"
                   style="fill:#121212;fill-opacity:1;fill-rule:nonzero;stroke:none"
                   id="path386" />
              </g>
            </g>
            <g
               id="g388">
              <g
                 id="g390"
                 clip-path="url(#clipPath394)">
                <path
                   d="m 752.89,227.65 v 0 c 2.02,-0.37 3.97,-0.75 5.85,-1.57 8.18,-3.68 13.28,-9.83 14.85,-18.68 2.33,-12.82 -6.15,-24.3 -17.78,-27.15 -7.87,-1.95 -15.22,-0.38 -21.52,4.87 -4.28,3.53 -6.83,8.18 -7.88,13.58 -1.28,6.75 -0.08,12.98 3.9,18.6 3.83,5.4 9,8.85 15.6,10.05 0.38,0.15 0.83,0.23 1.2,0.3 0.23,0.08 0.38,0.08 0.53,0.08 0.22,0 0.37,0 0.6,0 0.22,0 0.45,0 0.67,0.15 h 1.95 c 0.3,-0.23 0.6,-0.08 0.9,-0.15 0.23,0 0.38,0 0.6,0 0.15,0 0.38,0.07 0.53,-0.08 z"
                   style="fill:#121212;fill-opacity:1;fill-rule:nonzero;stroke:none"
                   id="path396" />
              </g>
            </g>
            <g
               id="g398">
              <g
                 id="g400"
                 clip-path="url(#clipPath404)">
                <path
                   d="m 752.36,227.65 v 0 c 0,0.08 -0.07,0.15 -0.07,0.23 h 0.6 c 0,-0.08 0,-0.15 0,-0.23 -0.15,0 -0.38,0 -0.53,0 z"
                   style="fill:#b5b8b9;fill-opacity:1;fill-rule:nonzero;stroke:none"
                   id="path406" />
              </g>
            </g>
            <g
               id="g408">
              <g
                 id="g410"
                 clip-path="url(#clipPath414)">
                <path
                   d="m 14.336,18.751 v 0 c 0,0.075 0.075,0.225 0,0.3 -0.225,0.675 -0.225,1.35 0,2.1 0,0.075 0,0.15 -0.075,0.225 0.075,0.3 0.15,0.6 0.225,0.9 0.525,1.426 1.575,2.251 3.075,2.476 1.126,0.225 2.251,0.525 3.301,0.825 5.101,1.65 8.176,5.176 9.301,10.351 0.525,2.551 0.6,5.101 0.75,7.726 0,0.826 0,1.576 0,2.401 0,9.226 0,18.452 0,27.754 0,12.001 0,24.078 0,36.151 0,7.65 0.075,15.31 0.075,22.96 0,2.4 -0.225,4.87 -0.825,7.2 -0.225,0.9 -0.45,1.65 -0.825,2.47 -1.125,2.85 -3.15,4.95 -6.001,6.23 -1.2,0.6 -2.475,0.97 -3.75,1.27 -0.75,0.15 -1.425,0.3 -2.101,0.53 -1.5,0.45 -2.625,1.35 -3.15,2.85 -0.075,0.9 -0.15,1.8 0,2.63 0.525,1.8 1.35,2.47 3.15,2.55 1.201,0.07 2.401,0 3.601,0 8.776,0 17.477,0.07 26.254,0.07 5.4,0 10.801,-0.07 16.202,-0.07 1.425,-0.08 2.775,-0.15 4.2,-0.23 0.976,-0.07 1.876,-0.3 2.776,-0.75 1.575,-0.67 2.55,-1.95 2.775,-3.68 0.225,-1.8 0,-3.52 -0.225,-5.32 -0.15,-1.28 -0.225,-2.55 -0.075,-3.83 0.075,-1.65 0.525,-3.15 1.725,-4.35 0.45,0.15 0.675,0.53 0.976,0.83 3.375,3.52 6.9,6.9 10.726,9.97 4.351,3.45 9.076,6.31 14.329,8.33 5.1,2.03 10.42,3.08 15.98,3.08 5.02,0 9.97,-0.45 14.92,-1.73 5.93,-1.5 11.33,-4.2 15.9,-8.48 3.6,-3.45 6.38,-7.57 8.41,-12.22 0.52,-1.13 0.97,-2.33 1.5,-3.53 0.52,0.15 0.75,0.6 1.12,0.9 3.45,3.6 7.05,7.2 10.8,10.5 3.98,3.38 8.1,6.53 12.75,8.93 4.58,2.4 9.31,3.98 14.41,4.65 3.45,0.53 6.97,0.53 10.5,0.23 3.52,-0.3 6.97,-0.9 10.42,-1.88 3,-0.82 5.85,-2.02 8.56,-3.52 8.1,-4.58 13.35,-11.33 16.12,-20.11 1.28,-3.97 1.88,-8.1 2.03,-12.3 0.37,-11.85 0.3,-23.7 0.3,-35.554 0,-15.453 0,-30.905 0,-46.432 0,-2.25 0.07,-4.575 0.52,-6.826 0.15,-0.525 0.23,-1.125 0.38,-1.65 1.12,-3.825 3.52,-6.451 7.2,-7.876 1.2,-0.45 2.47,-0.75 3.75,-0.975 0.45,-0.15 0.97,-0.15 1.42,-0.3 1.35,-0.3 2.18,-1.2 2.41,-2.551 0.22,-1.05 0.22,-2.1 -0.15,-3.075 -0.31,-0.975 -0.91,-1.575 -1.88,-1.875 -0.45,-0.075 -0.9,-0.225 -1.43,-0.225 -0.52,-0.075 -1.05,-0.075 -1.57,-0.075 -15.15,0 -30.3,0 -45.53,0 -5.63,0 -11.33,0 -17.03,0 -0.82,0 -1.57,0 -2.32,0.075 -1.05,0.15 -1.95,0.45 -2.55,1.425 -1.51,2.25 -0.45,5.476 2.1,6.451 0.52,0.15 1.05,0.3 1.65,0.45 0.75,0.15 1.5,0.3 2.17,0.525 3.45,1.125 5.85,3.375 7.2,6.676 1.05,2.475 1.28,5.101 1.35,7.726 0,3.6 0,7.126 0,10.651 0,4.351 -0.07,8.702 -0.07,13.052 -0.08,13.952 -0.23,27.904 -0.45,41.783 -0.08,5.85 -0.23,11.62 -0.3,17.4 -0.08,2.85 -0.45,5.7 -1.43,8.48 -0.22,0.67 -0.52,1.42 -0.82,2.1 -1.95,3.9 -5.03,6.3 -9.23,7.35 -4.35,1.05 -8.55,0.52 -12.68,-1.2 -5.25,-2.33 -9.67,-5.7 -13.27,-10.2 -1.2,-1.5 -2.18,-3.15 -2.93,-4.95 -0.67,-1.58 -1.05,-3.15 -1.05,-4.88 0,-4.88 -0.07,-9.75 -0.07,-14.63 0,-8.848 -0.08,-17.7 0,-26.551 0,-12.977 0,-25.878 0,-38.78 0,-1.875 0.15,-3.751 0.67,-5.551 1.05,-3.975 3.45,-6.676 7.2,-8.176 0.83,-0.3 1.65,-0.525 2.4,-0.825 0.68,-0.225 1.35,-0.525 1.95,-0.9 1.05,-0.675 1.65,-1.575 1.8,-2.851 0,-0.675 0,-1.35 -0.07,-1.95 -0.3,-1.65 -1.2,-2.475 -2.78,-2.625 -0.37,-0.075 -0.75,-0.075 -1.12,-0.075 -9.45,0 -18.91,0 -28.36,0 -10.95,0 -21.9,0 -32.85,0.075 -1.13,0 -2.18,-0.075 -3.3,-0.075 -2.18,-0.075 -3.6,0.825 -3.83,3.525 -0.22,2.1 0.53,3.451 2.55,4.276 0.53,0.3 1.13,0.45 1.73,0.6 1.2,0.3 2.32,0.6 3.45,1.05 3,1.35 5.02,3.601 6.15,6.676 0.75,2.025 1.05,4.125 1.13,6.301 0.07,2.1 0.07,4.2 0.07,6.301 0,17.852 0,35.63 0,53.482 0,6.303 0,12.673 -0.07,19.053 -0.08,3.83 -0.38,7.65 -1.43,11.4 -0.45,1.8 -1.13,3.53 -2.03,5.18 -2.17,3.75 -5.4,5.92 -9.75,6.6 -3.672,0.6 -7.273,0.22 -10.798,-1.13 -7.951,-2.85 -14.627,-9.82 -17.178,-17.77 -0.6,-2.1 -0.975,-4.21 -0.975,-6.38 0,-8.78 0,-17.628 -0.075,-26.404 0,-13.427 0,-26.929 0,-40.356 0,-3.375 0,-6.826 0.075,-10.201 0,-1.801 0.3,-3.526 0.75,-5.251 1.051,-3.9 3.526,-6.601 7.351,-8.026 0.676,-0.225 1.351,-0.45 2.026,-0.675 0.525,-0.15 1.05,-0.3 1.5,-0.525 0.825,-0.3 1.425,-0.975 1.725,-1.8 0.45,-1.201 0.525,-2.401 0.225,-3.676 -0.3,-0.975 -0.975,-1.575 -1.95,-1.95 -0.75,-0.225 -1.5,-0.225 -2.25,-0.225 -2.326,0 -4.576,-0.075 -6.901,-0.075 -19.353,0 -38.706,0 -57.983,0 -0.675,0 -1.351,0 -2.026,0.075 -1.2,0.15 -2.25,0.6 -2.55,1.95 z"
                   style="fill:#121212;fill-opacity:1;fill-rule:nonzero;stroke:none"
                   id="path416" />
              </g>
            </g>
            <g
               id="g418">
              <g
                 id="g420"
                 clip-path="url(#clipPath424)">
                <path
                   d="m 639.4,137.04 v 0 c 1.2,1.2 2.4,2.33 3.6,3.45 2.85,2.93 5.7,5.93 8.62,8.85 1.65,1.65 3.45,3.3 5.33,4.8 5.33,4.36 11.4,6.98 18.15,7.88 5.7,0.75 11.18,0.15 16.43,-2.17 4.43,-2.03 8.03,-5.03 10.58,-9.23 1.87,-3.15 2.85,-6.53 3,-10.2 0.15,-3.53 -0.15,-7.05 -1.28,-10.5 -1.72,-5.25 -5.17,-8.93 -10.35,-10.96 -2.18,-0.9 -4.5,-1.42 -6.83,-1.57 -3.15,-0.15 -6.07,0.45 -8.92,1.8 -3.53,1.73 -6.53,4.2 -8.93,7.28 -0.82,0.97 -1.5,2.1 -2.32,3.07 -0.68,0.9 -1.35,1.8 -2.03,2.63 -0.6,0.67 -1.35,1.27 -2.1,1.72 -1.65,1.13 -3.52,1.5 -5.47,1.05 -3.68,-0.82 -6.83,-2.7 -9.46,-5.4 -2.85,-2.92 -4.5,-6.45 -5.4,-10.43 -0.45,-2.02 -0.6,-4.2 -0.82,-6.22 -0.53,-6.98 -0.98,-13.878 -1.13,-20.854 -0.22,-7.201 -0.3,-14.477 -0.15,-21.753 0.15,-5.176 0.23,-10.351 0.45,-15.527 0.23,-5.476 0.53,-10.877 0.83,-16.352 0.07,-0.975 0.22,-2.026 0.45,-3.001 0.82,-3.15 2.62,-5.55 5.47,-7.276 1.58,-0.9 3.3,-1.575 5.1,-2.1 1.88,-0.525 3.76,-0.9 5.63,-1.275 0.75,-0.075 1.5,-0.3 2.25,-0.525 1.2,-0.45 1.88,-1.35 2.03,-2.701 0.07,-0.675 0.07,-1.35 -0.08,-1.95 -0.22,-1.725 -1.2,-2.625 -2.92,-2.85 -0.45,0 -0.9,0 -1.28,0 -5.93,0 -11.78,0 -17.7,0 -17.03,0 -34.06,0 -51.16,0.075 -1.27,0 -2.62,-0.075 -3.97,-0.15 -0.68,0 -1.36,0 -2.03,0.15 -0.98,0.15 -1.8,0.675 -2.18,1.65 -0.45,1.05 -0.6,2.1 -0.45,3.225 0.15,1.276 0.83,2.101 1.95,2.701 0.75,0.3 1.51,0.525 2.33,0.75 1.2,0.225 2.4,0.6 3.53,1.05 3.07,1.35 5.25,3.525 6.52,6.601 0.83,2.025 1.28,4.125 1.35,6.301 0.15,3.375 0.23,6.826 0.23,10.276 0.07,10.877 0.07,21.753 0.22,32.63 0.15,16.952 0.08,33.975 0.08,51.005 0,2.48 -0.15,4.95 -0.75,7.35 -0.15,0.6 -0.38,1.13 -0.53,1.65 -1.42,3.68 -3.97,6.15 -7.65,7.43 -0.9,0.3 -1.8,0.52 -2.7,0.67 -0.6,0.15 -1.28,0.3 -1.88,0.53 -1.57,0.6 -2.47,1.8 -2.55,3.52 -0.07,0.83 0,1.73 0.3,2.56 0.3,0.82 0.9,1.42 1.8,1.65 0.75,0.22 1.5,0.3 2.26,0.3 5.62,0 11.25,0 16.8,0 10.2,0 20.33,0 30.45,0.07 1.13,0 2.25,0 3.3,-0.3 2.63,-0.52 3.53,-2.25 3.68,-4.13 0.15,-0.9 0.15,-1.87 0.07,-2.77 -0.22,-4.65 0,-9.38 0,-14.03 0,-0.07 0.08,-0.15 0.23,-0.45 z"
                   style="fill:#121212;fill-opacity:1;fill-rule:nonzero;stroke:none"
                   id="path426" />
              </g>
            </g>
            <g
               id="g428">
              <g
                 id="g430"
                 clip-path="url(#clipPath434)">
                <path
                   d="m 504.15,11.55 v 0 c -0.3,0 -0.6,0 -0.9,0 -0.37,0 -0.75,0 -1.12,0 -0.38,0 -0.75,0 -1.13,0 h -6.37 c -0.38,0 -0.75,0 -1.13,0 -0.37,0 -0.75,0 -1.12,0 -0.3,0 -0.6,0 -0.9,0 -3.23,0.45 -6.45,0.9 -9.6,1.725 -11.48,3.076 -21.91,8.176 -31.06,15.827 -9.97,8.402 -16.65,18.978 -20.25,31.505 -1.43,5.025 -2.33,10.201 -2.63,15.377 -0.22,3.975 -0.37,7.876 -0.52,11.777 -0.08,2.55 -0.3,5.1 -0.3,7.576 0.07,1.05 0.07,2.025 0.3,3 0.3,1.873 1.35,3.073 3.15,3.523 1.05,0.3 2.1,0.45 3.15,0.45 1.2,0.08 2.47,0.15 3.67,0.15 5.71,0 11.41,0 17.11,0.08 3.45,0.07 6.9,-0.08 10.27,-0.75 2.85,-0.53 5.48,-1.43 8.03,-2.703 0.3,-0.15 0.67,-0.375 0.97,-0.525 -0.15,-0.525 -0.6,-0.825 -0.97,-1.125 -2.55,-2.4 -4.88,-4.951 -7.05,-7.726 -2.33,-3.076 -4.2,-6.376 -5.48,-10.052 -1.95,-5.325 -2.17,-10.876 -0.6,-16.352 2.48,-8.776 7.13,-16.127 14.33,-21.828 4.65,-3.675 10.05,-5.851 15.9,-6.901 4.2,-0.825 8.4,-0.975 12.68,-0.525 5.02,0.6 9.83,2.025 14.33,4.351 8.77,4.575 15.45,11.326 20.25,19.952 3,5.401 4.87,11.102 5.7,17.178 0.82,6.301 0.22,12.527 -1.58,18.602 -4.42,15.224 -13.42,27.154 -26.47,36.084 -7.43,5.02 -15.68,8.47 -24.38,10.65 -3.9,0.97 -7.8,1.57 -11.78,2.02 -3.68,0.45 -7.35,0.9 -11.1,1.35 -3.15,0.3 -6.3,0.6 -9.45,0.98 -1.28,0.07 -2.55,0.3 -3.75,0.45 -0.23,0.37 0.07,0.6 0.22,0.75 1.95,2.55 4.2,4.65 6.75,6.45 3.98,2.85 8.33,4.88 12.98,6.38 4.05,1.27 8.18,2.1 12.45,2.62 4.58,0.6 9.15,0.68 13.73,0.45 6.67,-0.3 13.2,-1.42 19.58,-3.45 6.6,-2.02 12.52,-5.48 17.92,-9.75 9.23,-7.43 16.06,-16.58 21.01,-27.3 3.07,-6.76 5.17,-13.81 6.37,-21.16 1.05,-6.224 1.35,-12.374 1.05,-18.6 -0.6,-12.602 -3.82,-24.529 -10.05,-35.555 -6.97,-12.302 -16.95,-21.528 -29.48,-27.979 -5.7,-3.001 -11.77,-5.101 -18.23,-6.301 -1.5,-0.225 -3,-0.45 -4.5,-0.675 z"
                   style="fill:#121212;fill-opacity:1;fill-rule:nonzero;stroke:none"
                   id="path436" />
              </g>
            </g>
            <g
               id="g438">
              <g
                 id="g440"
                 clip-path="url(#clipPath444)">
                <path
                   d="m 789.72,19.651 v 0 c 0,-0.225 0,-0.375 0,-0.6 -0.38,-1.65 -1.2,-2.4 -2.85,-2.55 -0.53,0 -1.13,0 -1.65,0.075 -0.98,0.15 -1.95,0.225 -2.93,0.225 -10.57,-0.075 -21.23,-0.075 -31.88,-0.075 -8.17,0 -16.42,0 -24.68,0.075 -1.35,0 -2.77,0 -4.12,-0.225 -0.75,-0.15 -1.5,-0.15 -2.33,-0.075 -1.2,0 -2.1,0.675 -2.62,1.8 -0.38,0.825 -0.53,1.65 -0.53,2.55 0.08,1.275 0.68,2.251 1.65,3.076 0.83,0.675 1.8,1.05 2.78,1.425 0.52,0.15 1.12,0.3 1.65,0.525 4.8,1.5 7.65,4.801 8.85,9.676 0.3,1.575 0.6,3.151 0.6,4.801 0,1.5 0,3 0,4.426 0.08,15.602 0.08,31.204 0.08,46.806 0,9.304 0,18.604 0.07,27.904 0,4.88 0,9.83 0,14.78 0,2.17 -0.15,4.27 -0.75,6.37 -1.12,4.2 -3.75,7.13 -7.88,8.7 -0.75,0.3 -1.57,0.53 -2.4,0.75 -0.9,0.23 -1.8,0.45 -2.55,0.98 -1.95,1.27 -2.7,3.82 -1.65,5.93 0.38,0.67 0.9,1.12 1.58,1.42 0.67,0.23 1.42,0.23 2.1,0.23 7.27,0 14.48,-0.08 21.68,-0.08 8.62,0 17.25,0 25.88,0.15 1.27,0 2.55,0 3.82,-0.3 2.25,-0.52 3.53,-1.8 3.98,-3.98 0.3,-1.2 0.37,-2.4 0.37,-3.6 -0.07,-7.8 -0.22,-15.6 -0.3,-23.4 0,-5.32 0.08,-10.58 0.08,-15.9 0,-3.68 0.07,-7.28 0.07,-10.95 0,-18.905 0,-37.808 0,-56.711 0,-1.8 0,-3.6 0.08,-5.475 0.07,-1.651 0.3,-3.301 0.75,-4.951 1.05,-3.675 3.45,-6.151 7.05,-7.501 0.67,-0.225 1.27,-0.375 1.95,-0.6 0.82,-0.225 1.65,-0.45 2.4,-0.9 0.82,-0.525 1.57,-1.125 1.65,-2.176 0,-0.225 0,-0.375 0,-0.6 0,-0.525 0,-0.975 0,-1.5 0,-0.15 0,-0.375 0,-0.525 z"
                   style="fill:#121212;fill-opacity:1;fill-rule:nonzero;stroke:none"
                   id="path446" />
              </g>
            </g>
            <g
               id="g448">
              <g
                 id="g450"
                 clip-path="url(#clipPath454)">
                <path
                   d="m 336.66,179.5 v 0 c -8.11,0 -16.06,0.07 -24.01,0.15 -5.17,0 -10.42,-0.15 -15.6,-0.3 -1.35,-0.08 -2.63,-0.08 -3.9,0.22 -3.08,0.6 -4.13,2.55 -4.5,4.88 -0.15,1.2 -0.23,2.4 -0.15,3.6 0.07,1.42 0.15,2.92 0.22,4.43 0,0.82 0.15,1.57 0.38,2.4 0.52,1.72 1.65,2.85 3.37,3.45 1.13,0.37 2.33,0.52 3.53,0.52 1.43,0 2.85,0 4.35,-0.07 6.6,-0.23 13.2,-0.23 19.8,-0.23 6,-0.07 12.08,-0.15 18.08,-0.15 12.45,0.15 24.9,0.08 37.36,0.38 1.5,0.07 3,-0.08 4.57,-0.38 2.55,-0.52 3.98,-2.25 4.43,-4.8 0.15,-0.97 0.3,-2.03 0.22,-3 0,-2.1 -0.07,-4.2 -0.45,-6.3 -0.07,-0.6 -0.3,-1.2 -0.52,-1.8 -0.6,-1.2 -1.5,-2.1 -2.78,-2.55 -0.9,-0.38 -1.8,-0.6 -2.77,-0.6 -1.95,-0.15 -3.9,0 -5.85,0.07 -5.33,0.3 -10.66,0.23 -15.98,0.23 -6.68,-0.08 -13.28,-0.15 -19.8,-0.15 z"
                   style="fill:#121212;fill-opacity:1;fill-rule:nonzero;stroke:none"
                   id="path456" />
              </g>
            </g>
            <g
               id="g458">
              <g
                 id="g460"
                 clip-path="url(#clipPath464)">
                <path
                   d="m 356.38,90.311 v 0 c 0,0.75 0,1.5 -0.07,2.25 0,0.3 -0.15,0.3 -0.38,0.3 -0.15,-0.075 -0.37,-0.15 -0.52,-0.3 -5.93,-2.85 -11.85,-5.776 -17.63,-8.926 -4.27,-2.4 -8.48,-4.951 -12.38,-7.801 -4.5,-3.226 -8.62,-6.751 -12.22,-10.877 -2.18,-2.475 -4.2,-5.1 -5.93,-7.951 -2.7,-4.65 -4.12,-9.601 -3.37,-15.077 0.52,-3.675 1.95,-6.901 4.5,-9.601 2.47,-2.626 5.55,-4.276 9.22,-4.726 3,-0.375 5.93,-0.075 8.85,0.525 7.21,1.5 13.73,4.651 19.66,9.077 1.72,1.275 3.3,2.775 4.8,4.35 1.57,1.725 2.92,3.601 3.97,5.776 0.68,1.425 1.13,2.925 1.28,4.501 0.15,1.65 0.22,3.225 0.3,4.875 0.15,5.101 0.22,10.202 0.07,16.427 0,5.026 -0.07,11.102 -0.15,17.178 z m -0.6,-58.658 v 0 c -0.45,-0.15 -0.75,-0.45 -1.12,-0.75 -5.1,-4.051 -10.35,-7.726 -16.13,-10.727 -6.15,-3.225 -12.6,-5.476 -19.43,-6.751 -4.57,-0.825 -9.15,-1.2 -13.72,-0.9 -6.08,0.375 -11.86,1.875 -16.96,5.251 -7.87,5.251 -12.82,12.527 -14.55,21.828 -0.9,4.5 -0.52,9.076 0.6,13.502 1.05,4.35 2.85,8.326 5.1,12.151 4.95,8.177 11.25,15.228 18.61,21.303 6.07,5.101 12.67,9.377 19.57,13.277 6.6,3.673 13.43,6.973 20.18,10.273 2.63,1.28 5.33,2.25 8.1,2.85 1.35,0.3 2.63,0.68 3.9,1.13 0.9,0.37 1.73,0.75 2.55,1.27 2.33,1.35 3.6,3.45 3.98,6.16 0.22,1.42 0.22,2.85 0.22,4.27 -0.07,2.55 -0.15,5.1 -0.52,7.58 -0.23,2.1 -0.68,4.05 -1.43,6 -1.42,3.6 -3.82,6.45 -7.12,8.4 -4.88,2.92 -10.2,4.65 -15.9,4.72 -5.48,0.08 -10.58,-1.35 -15.31,-4.12 -0.82,-0.45 -1.5,-0.98 -2.17,-1.65 -2.03,-1.95 -2.63,-4.28 -1.88,-6.98 0.38,-1.35 1.05,-2.55 1.8,-3.75 0.53,-0.75 1.13,-1.5 1.73,-2.32 1.57,-2.18 3,-4.5 3.9,-7.05 1.95,-5.25 1.27,-10.21 -1.95,-14.78 -1.35,-1.95 -3,-3.68 -4.95,-5.1 -4.8,-3.6 -10.13,-4.58 -15.9,-3.38 -2.48,0.45 -4.81,1.35 -6.98,2.48 -5.48,2.77 -8.7,7.2 -9.68,13.2 -0.45,2.63 -0.45,5.25 -0.22,7.88 0.22,3.3 0.9,6.45 2.1,9.52 2.1,5.33 5.55,9.53 10.12,12.98 1.95,1.42 3.98,2.62 6.16,3.67 7.65,3.76 15.67,6.53 24.15,8.11 6.6,1.27 13.35,1.72 20.1,1.42 9.45,-0.45 18.68,-2.4 27.61,-5.55 2.62,-0.9 5.1,-1.88 7.65,-3 3.45,-1.5 6.67,-3.45 9.52,-6 3.45,-3.15 6,-6.98 7.5,-11.4 0.38,-1.13 0.83,-2.25 1.35,-3.3 1.35,-2.25 3.23,-3.45 5.85,-3.53 1.51,0 3.01,0.15 4.43,0.45 5.4,1.05 10.73,1.88 16.2,2.63 9.45,1.2 18.91,1.8 28.43,1.8 5.4,0 10.73,-0.23 16.13,-0.68 5.02,-0.37 10.05,-0.97 15.08,-1.8 6.67,-1.12 13.12,-3 19.27,-5.92 11.41,-5.48 19.88,-13.88 25.58,-25.21 1.95,-3.823 3.6,-7.874 4.65,-12.149 2.4,-9.752 0.83,-18.903 -4.57,-27.304 -2.78,-4.351 -6.23,-8.101 -10.43,-11.252 -3.82,-2.775 -8.03,-4.725 -12.75,-5.625 -3.45,-0.676 -6.98,-0.676 -10.58,-0.15 -3.82,0.525 -7.5,1.725 -10.87,3.75 -6,3.526 -10.36,8.476 -12.61,15.077 -2.62,7.426 -1.12,14.252 3.45,20.478 2.41,3.225 5.78,5.101 9.68,6.076 3.3,0.825 6.68,0.75 10.13,0.45 1.95,-0.15 3.97,-0.45 5.92,-0.975 0.9,-0.3 1.8,-0.15 2.63,0.225 1.12,0.525 1.27,0.3 0.6,1.575 -3.53,6.001 -8.55,10.504 -14.7,13.724 -4.28,2.18 -8.78,3.68 -13.36,4.8 -5.17,1.28 -10.5,2.1 -15.82,2.7 -6.68,0.68 -13.35,0.68 -20.11,0.38 -4.65,-0.15 -9.3,-0.68 -14.02,-1.28 -6,-0.75 -12,-1.72 -17.93,-2.92 -0.9,-0.15 -1.8,-0.38 -2.62,-0.68 -3.08,-1.12 -4.73,-3.3 -5.03,-6.52 -0.08,-1.05 -0.15,-2.028 -0.08,-3.003 0.15,-11.177 0.08,-22.278 0.08,-33.38 0,-7.651 0.07,-15.302 0.07,-22.953 0,-1.65 0.15,-3.375 0.53,-4.95 0.15,-0.826 0.45,-1.576 0.82,-2.326 0.83,-1.275 1.95,-1.95 3.46,-2.025 1.12,-0.075 2.17,0.15 3.22,0.45 0.83,0.3 1.58,0.6 2.33,0.825 0.75,0.3 1.42,0.525 2.25,0.45 0.3,0 0.67,0 0.97,-0.075 2.1,-0.675 3.38,-3.525 2.48,-5.551 -0.15,-0.375 -0.38,-0.75 -0.68,-1.125 -2.85,-3.975 -6.15,-7.426 -10.27,-10.051 -4.51,-2.926 -9.38,-4.801 -14.71,-5.251 -11.32,-0.975 -20.77,2.925 -28.35,11.327 -1.8,2.025 -3.3,4.35 -4.65,6.751 -0.15,0.375 -0.3,0.825 -0.68,1.05 z"
                   style="fill:#d12b38;fill-opacity:1;fill-rule:nonzero;stroke:none"
                   id="path466" />
              </g>
            </g>
          </g>
        </g>
      </g>
    </g>
  </g>
</svg>
